<?xml version="1.0" standalone="no"?>
<!DOCTYPE svg PUBLIC "-//W3C//DTD SVG 20010904//EN"
 "http://www.w3.org/TR/2001/REC-SVG-20010904/DTD/svg10.dtd">
<svg version="1.0" xmlns="http://www.w3.org/2000/svg"
 width="1024.000000pt" height="1024.000000pt" viewBox="0 0 1024.000000 1024.000000"
 preserveAspectRatio="xMidYMid meet">

<g transform="translate(0.000000,1024.000000) scale(0.100000,-0.100000)"
fill="#000000" stroke="none">
<path d="M3050 8730 c-411 -18 -744 -125 -1000 -318 -129 -98 -270 -246 -350
-367 -170 -259 -253 -501 -279 -815 -6 -78 -11 -898 -12 -2200 -3 -1896 -1
-2084 14 -2176 24 -143 42 -217 83 -335 92 -264 233 -464 469 -663 187 -158
451 -276 760 -340 176 -36 272 -37 2460 -34 l2140 4 145 27 c407 79 728 259
965 541 222 266 337 575 365 991 15 208 5 4037 -10 4198 -52 539 -323 999
-731 1241 -202 121 -456 199 -744 231 -107 12 -476 15 -2120 19 -1094 2 -2064
0 -2155 -4z m4020 -20 c0 -5 -2 -10 -4 -10 -3 0 -8 5 -11 10 -3 6 -1 10 4 10
6 0 11 -4 11 -10z m350 -450 c0 -5 -5 -10 -11 -10 -5 0 -7 5 -4 10 3 6 8 10
11 10 2 0 4 -4 4 -10z m-2070 -285 c41 -3 86 -7 100 -9 14 -2 50 -6 80 -11
168 -23 589 -129 729 -184 27 -11 79 -27 114 -35 135 -32 354 -147 455 -239
79 -74 114 -164 98 -251 -10 -51 -51 -96 -87 -96 -17 0 -28 -5 -27 -12 2 -7
-13 -16 -32 -21 -52 -14 -108 6 -199 68 -182 124 -552 279 -851 355 -564 144
-1154 85 -1650 -165 -156 -79 -402 -246 -510 -347 -152 -141 -253 -229 -282
-244 -54 -28 -115 -24 -167 11 -144 98 -117 209 104 430 70 71 163 150 223
193 56 40 105 72 108 72 2 0 21 11 42 23 152 96 421 225 641 309 207 78 512
143 731 154 63 4 116 8 118 9 4 3 164 -3 262 -10z m-1060 -25 c0 -5 -5 -10
-11 -10 -5 0 -7 5 -4 10 3 6 8 10 11 10 2 0 4 -4 4 -10z m1095 -774 c103 -13
368 -77 481 -117 279 -98 381 -192 364 -333 -12 -95 -74 -99 -249 -16 -62 29
-114 50 -117 48 -2 -3 14 -13 36 -23 43 -19 77 -51 66 -62 -3 -4 -71 14 -149
40 -391 129 -584 164 -852 154 -165 -6 -273 -29 -434 -91 -135 -52 -333 -158
-379 -203 -7 -7 -18 -13 -23 -13 -5 0 -40 -31 -78 -70 -38 -38 -72 -70 -76
-70 -4 0 -20 -11 -37 -25 -76 -64 -209 7 -208 112 2 105 168 315 337 427 217
143 613 250 958 259 84 2 274 -7 360 -17z m1135 -466 c0 -5 -5 -10 -11 -10 -5
0 -7 5 -4 10 3 6 8 10 11 10 2 0 4 -4 4 -10z m469 -58 c15 -11 32 -39 40 -66
13 -42 13 -60 -2 -164 -9 -64 -18 -126 -21 -137 -3 -17 -21 -132 -31 -205 -81
-588 -79 -563 -79 -1070 -1 -422 6 -707 20 -815 10 -75 21 -340 19 -450 -4
-200 -82 -381 -225 -523 -121 -120 -230 -186 -402 -242 -321 -104 -658 -49
-844 137 -139 139 -191 334 -150 565 56 312 352 646 648 732 69 20 229 24 314
7 73 -14 196 -55 230 -78 14 -9 27 -13 30 -10 3 3 1 68 -5 144 -37 471 -41
1018 -10 1301 6 52 9 95 7 98 -5 4 -200 -75 -213 -88 -5 -5 20 2 57 16 67 25
93 22 60 -7 -29 -26 -150 -87 -246 -124 -200 -78 -438 -140 -671 -174 -82 -13
-488 -18 -584 -8 -31 4 -35 1 -40 -26 -9 -50 -7 -873 4 -1125 9 -221 10 -417
5 -747 -1 -78 1 -146 4 -151 3 -5 1 -59 -4 -121 -22 -251 -142 -476 -323 -604
-172 -122 -310 -181 -506 -217 -372 -68 -736 64 -848 307 -99 213 -95 516 8
713 128 246 369 441 665 539 118 39 145 44 234 43 100 0 167 -14 280 -56 52
-19 95 -34 97 -33 1 2 -8 68 -22 148 -26 162 -23 133 -70 561 -46 415 -50 493
-49 878 2 268 5 336 19 389 9 35 14 70 11 78 -8 20 5 41 61 98 26 28 53 58 58
67 7 12 61 30 170 58 88 23 188 52 222 66 34 13 73 24 88 24 15 0 41 10 58 23
27 19 45 22 119 22 96 0 130 -15 157 -71 8 -16 18 -37 23 -46 4 -10 8 -46 8
-81 0 -36 5 -68 12 -75 16 -16 97 -15 193 3 363 70 808 217 973 321 29 19 62
34 75 34 37 1 98 34 187 103 77 61 88 66 124 63 22 -3 51 -13 65 -24z m1241
-3376 c0 -3 -4 -8 -10 -11 -5 -3 -10 -1 -10 4 0 6 5 11 10 11 6 0 10 -2 10 -4z"/>
<path d="M6652 4900 c0 -14 2 -19 5 -12 2 6 2 18 0 25 -3 6 -5 1 -5 -13z"/>
<path d="M6653 4795 c0 -44 2 -61 4 -37 2 23 2 59 0 80 -2 20 -4 1 -4 -43z"/>
<path d="M4588 4398 c2 -57 8 -110 13 -118 6 -10 8 18 5 80 -3 52 -5 105 -6
118 0 12 -4 22 -8 22 -5 0 -6 -46 -4 -102z"/>
<path d="M3890 3920 c-9 -6 -10 -10 -3 -10 6 0 15 5 18 10 8 12 4 12 -15 0z"/>
<path d="M3788 3881 c-36 -16 -81 -39 -100 -51 -42 -29 -118 -101 -118 -113 0
-4 11 3 24 16 56 57 118 99 197 136 97 46 95 54 -3 12z"/>
<path d="M5548 3829 c-27 -86 -32 -236 -10 -308 17 -55 24 -49 10 9 -13 57 -4
237 16 310 23 81 11 73 -16 -11z"/>
<path d="M6586 3375 c-113 -108 -178 -155 -262 -191 -37 -16 -47 -23 -27 -19
85 17 243 121 318 211 56 67 77 94 73 94 -2 -1 -47 -43 -102 -95z"/>
<path d="M3310 3098 c-1 -16 45 -126 72 -173 41 -69 75 -103 133 -132 l50 -25
-43 37 c-64 56 -150 168 -182 238 -16 34 -29 59 -30 55z"/>
<path d="M4600 3019 c-25 -34 -63 -77 -85 -97 -128 -115 -168 -155 -135 -134
75 46 153 118 210 195 51 68 69 98 58 97 -2 -1 -23 -28 -48 -61z"/>
</g>
</svg>
